<svg id="visual" viewBox="0 0 900 600" width="900" height="600" xmlns="http://www.w3.org/2000/svg" xmlns:xlink="http://www.w3.org/1999/xlink" version="1.1"><rect x="0" y="0" width="900" height="600" fill="#001220"></rect><path d="M0 450L21.5 442.3C43 434.7 86 419.3 128.8 413.3C171.7 407.3 214.3 410.7 257.2 424C300 437.3 343 460.7 385.8 467.2C428.7 473.7 471.3 463.3 514.2 464.8C557 466.3 600 479.7 642.8 479.2C685.7 478.7 728.3 464.3 771.2 452.7C814 441 857 432 878.5 427.5L900 423L900 601L878.5 601C857 601 814 601 771.2 601C728.3 601 685.7 601 642.8 601C600 601 557 601 514.2 601C471.3 601 428.7 601 385.8 601C343 601 300 601 257.2 601C214.3 601 171.7 601 128.8 601C86 601 43 601 21.5 601L0 601Z" fill="#6c0f34"></path><path d="M0 524L21.5 519.2C43 514.3 86 504.7 128.8 503C171.7 501.3 214.3 507.7 257.2 504.7C300 501.7 343 489.3 385.8 483.5C428.7 477.7 471.3 478.3 514.2 484.3C557 490.3 600 501.7 642.8 499.8C685.7 498 728.3 483 771.2 474.3C814 465.7 857 463.3 878.5 462.2L900 461L900 601L878.5 601C857 601 814 601 771.2 601C728.3 601 685.7 601 642.8 601C600 601 557 601 514.2 601C471.3 601 428.7 601 385.8 601C343 601 300 601 257.2 601C214.3 601 171.7 601 128.8 601C86 601 43 601 21.5 601L0 601Z" fill="#98194d"></path><path d="M0 515L21.5 520.2C43 525.3 86 535.7 128.8 542C171.7 548.3 214.3 550.7 257.2 548.2C300 545.7 343 538.3 385.8 540.3C428.7 542.3 471.3 553.7 514.2 552.2C557 550.7 600 536.3 642.8 530.8C685.7 525.3 728.3 528.7 771.2 529C814 529.3 857 526.7 878.5 525.3L900 524L900 601L878.5 601C857 601 814 601 771.2 601C728.3 601 685.7 601 642.8 601C600 601 557 601 514.2 601C471.3 601 428.7 601 385.8 601C343 601 300 601 257.2 601C214.3 601 171.7 601 128.8 601C86 601 43 601 21.5 601L0 601Z" fill="#c62368"></path></svg>